<svg width="125" height="18" viewBox="0 0 125 18" fill="none" xmlns="http://www.w3.org/2000/svg">
<path fill-rule="evenodd" clip-rule="evenodd" d="M19.2087 0H4.20241C1.71129 0 0.0162464 2.0363 0.0162464 4.02904V6.40835C0.0108309 8.35209 1.73837 10.6497 4.20782 10.6552H13.6091C14.6922 10.6552 15.1417 11.0309 15.1417 12.147V12.9365C15.1417 14.0526 14.6868 14.4392 13.5495 14.4392H0V18H15.0334C17.4974 18 19.2358 15.9093 19.2358 13.9764L19.2249 11.0907C19.2195 9.15245 17.4866 7.33938 15.0279 7.34483H5.62668C4.53817 7.34483 4.11576 6.9637 4.11035 5.85844V5.00907C4.11035 3.89837 4.54358 3.51724 5.62668 3.51724H19.2087V0ZM24.348 0.0381125H20.7467V11.4828C20.7467 14.853 22.6963 17.9946 27.3482 17.9946H33.3756C37.735 17.9782 39.9879 15.2995 39.9879 11.4882V0.0381125H36.3757V11.4719C36.3757 12.8657 35.5797 14.5045 33.1914 14.4936H27.3644C25.1224 14.4882 24.3426 12.8766 24.3426 11.4664V0.0381125H24.348ZM69.2639 0.076225H81.8278V0.0707804V3.56624H69.2639C67.3198 3.56624 66.1663 4.66062 66.1663 6.63702V11.3412C66.1663 13.5463 67.4768 14.4991 69.2693 14.4991H81.8387L81.8278 17.9837L69.2531 17.9946C64.9749 17.9946 62.5433 15.3975 62.5487 11.3303V6.65336C62.5596 2.16697 65.4948 0.0816697 69.2585 0.0816697L69.2639 0.076225ZM105.775 17.9564V0.0163339H109.322L121.431 12.7241V0.0163339H125V17.9946H121.437L109.322 5.20508V17.951H105.775V17.9564ZM48.4739 12.4356H50.938C52.8767 12.4356 54.8209 12.4356 56.8462 12.4356C59.2724 12.4356 61.0487 10.4755 61.0487 8.43376V4.07804C61.0487 2.06897 59.267 0.076225 56.8517 0.0816697L41.4934 0.0653358V17.9891H45.0297V12.4247C46.2048 12.4247 47.3421 12.4247 48.4739 12.4247V12.4356ZM45.0243 8.84755V3.59891L55.4382 3.6098C56.1693 3.6098 56.9546 3.72958 56.9546 5.05263V7.36661C56.9546 8.68965 56.1693 8.81488 55.4382 8.81488L45.0243 8.84755ZM90.0485 0.076225C85.6891 0.076225 83.3496 2.77677 83.3496 6.68603V11.3848C83.3496 15.294 85.6891 17.9946 90.0485 17.9946H97.5652C101.925 17.9946 104.264 15.294 104.264 11.3848V6.68603C104.264 2.77677 101.925 0.076225 97.5652 0.076225H90.0485ZM90.0485 14.4936C88.1585 14.4828 86.8967 13.4047 86.9021 11.3848V6.68603C86.8967 4.66062 88.1531 3.58802 90.0485 3.57713H97.5652C99.4552 3.58802 100.717 4.66606 100.712 6.68603V11.3848C100.717 13.4102 99.4606 14.4828 97.5652 14.4936H90.0485Z" fill="url(#paint0_linear_233_1864)"/>
<defs>
<linearGradient id="paint0_linear_233_1864" x1="6.24116" y1="8.99999" x2="116.759" y2="8.99999" gradientUnits="userSpaceOnUse">
<stop stop-color="#032CA6"/>
<stop offset="1" stop-color="#35AFE6"/>
</linearGradient>
</defs>
</svg>
